<svg width="21" height="16" viewBox="0 0 21 16" fill="none" xmlns="http://www.w3.org/2000/svg">
<path d="M20 9C20.5523 9 21 8.55228 21 8C21 7.44772 20.5523 7 20 7L20 9ZM0.292893 7.29289C-0.0976314 7.68342 -0.0976315 8.31658 0.292892 8.70711L6.65685 15.0711C7.04738 15.4616 7.68054 15.4616 8.07107 15.0711C8.46159 14.6805 8.46159 14.0474 8.07107 13.6569L2.41421 8L8.07107 2.34314C8.46159 1.95262 8.46159 1.31946 8.07107 0.928931C7.68054 0.538407 7.04738 0.538407 6.65686 0.928931L0.292893 7.29289ZM20 7L1 7L1 9L20 9L20 7Z" fill="url(#paint0_linear_14_810)" fill-opacity="0.8"/>
<defs>
<linearGradient id="paint0_linear_14_810" x1="37.5" y1="8" x2="0.99998" y2="8" gradientUnits="userSpaceOnUse">
<stop stop-color="#A259FF"/>
<stop offset="1" stop-color="#09F9BF" stop-opacity="0.69"/>
</linearGradient>
</defs>
</svg>
