<svg width="87" height="72" viewBox="0 0 87 72" fill="none" xmlns="http://www.w3.org/2000/svg">
<path d="M82.9599 34.2352V11.9244C82.9599 6.99557 78.9644 3 74.0355 3H11.565C6.63619 3 2.64062 6.99557 2.64062 11.9244V38.6974C2.64062 43.6263 6.63619 47.6218 11.565 47.6218H42.8002" stroke="#614AD3" stroke-width="5" stroke-linecap="round" stroke-linejoin="round"/>
<path fill-rule="evenodd" clip-rule="evenodd" d="M82.4212 51.7155C84.6246 53.0706 84.489 56.3695 82.2195 56.627L70.7669 57.925L65.63 68.2429C64.6122 70.2875 61.4659 69.2866 60.9456 66.7526L55.3443 39.4619C54.9047 37.32 56.8297 35.972 58.6918 37.1179L82.4212 51.7155Z" stroke="#614AD3" stroke-width="5"/>
<path d="M42.7998 25.3558L42.8447 25.3059" stroke="#614AD3" stroke-width="5" stroke-linecap="round" stroke-linejoin="round"/>
<path d="M60.6497 25.3558L60.6946 25.3059" stroke="#614AD3" stroke-width="5" stroke-linecap="round" stroke-linejoin="round"/>
<path d="M24.9517 25.3558L24.9966 25.3059" stroke="#614AD3" stroke-width="5" stroke-linecap="round" stroke-linejoin="round"/>
</svg>
