<svg width="56" height="86" viewBox="0 0 56 86" fill="none" xmlns="http://www.w3.org/2000/svg">
<path d="M2.16235 42.9999V1.84546H54.0001V84.1544H2.16235V43.6091V42.9999Z" stroke="#614AD3" stroke-width="3" stroke-miterlimit="10" stroke-linecap="round" stroke-linejoin="round"/>
<path d="M2.32874 42.9999H53.8342" stroke="#614AD3" stroke-width="3" stroke-miterlimit="10" stroke-linecap="round" stroke-linejoin="round"/>
<path d="M11.0843 72.0757H7.86658V54.5749H24.592V72.0757H21.3854H11.0843Z" stroke="#614AD3" stroke-width="3" stroke-miterlimit="10" stroke-linecap="round" stroke-linejoin="round"/>
<path d="M30.2411 54.5749H36.2224" stroke="#614AD3" stroke-width="3" stroke-miterlimit="10" stroke-linecap="round" stroke-linejoin="round"/>
<path d="M6.98047 49.2194H25.5889" stroke="#614AD3" stroke-width="3" stroke-miterlimit="10" stroke-linecap="round" stroke-linejoin="round"/>
<path d="M30.2411 60.2737H42.6467" stroke="#614AD3" stroke-width="3" stroke-miterlimit="10" stroke-linecap="round" stroke-linejoin="round"/>
<path d="M30.2411 65.9725H48.9603" stroke="#614AD3" stroke-width="3" stroke-miterlimit="10" stroke-linecap="round" stroke-linejoin="round"/>
<path d="M30.2411 71.6713H48.9603" stroke="#614AD3" stroke-width="3" stroke-miterlimit="10" stroke-linecap="round" stroke-linejoin="round"/>
<path d="M7.42346 78.2784H48.9601" stroke="#614AD3" stroke-width="3" stroke-miterlimit="10" stroke-linecap="round" stroke-linejoin="round"/>
<path d="M42.0374 54.5749H48.0186" stroke="#614AD3" stroke-width="3" stroke-miterlimit="10" stroke-linecap="round" stroke-linejoin="round"/>
<path d="M19.3806 61.8852C19.3806 63.6242 17.9684 65.0364 16.2294 65.0364C14.4904 65.0364 13.0781 63.6242 13.0781 61.8852C13.0781 60.1462 14.4904 58.7339 16.2294 58.7339C17.9684 58.7339 19.3806 60.1462 19.3806 61.8852Z" stroke="#614AD3" stroke-width="3" stroke-miterlimit="10" stroke-linecap="round" stroke-linejoin="round"/>
<path d="M11.0843 72.0756C11.0843 72.0756 10.752 68.3096 14.2965 68.3096H18.5055C20.3885 68.3096 21.3854 71.1894 21.3854 72.0756" stroke="#614AD3" stroke-width="3" stroke-miterlimit="10" stroke-linecap="round" stroke-linejoin="round"/>
</svg>
