<svg width="254" height="254" viewBox="0 0 254 254" fill="none" xmlns="http://www.w3.org/2000/svg">
<g filter="url(#filter0_b_3667_298)">
<path d="M200.313 185.757C204.212 188.882 209.943 188.274 212.713 184.116C218.822 174.949 223.432 164.844 226.349 154.181C230.064 140.603 230.956 126.409 228.97 112.473C226.985 98.5367 222.164 85.1557 214.805 73.1556C207.447 61.1556 197.706 50.7913 186.186 42.7027C174.665 34.614 161.609 28.9726 147.823 26.1269C134.037 23.2812 119.814 23.2914 106.032 26.1571C92.2498 29.0228 79.2017 34.683 67.6927 42.7883C58.6542 49.1538 50.7156 56.9213 44.168 65.7804C41.1983 69.7985 42.573 75.3951 46.8362 78.0009C51.0993 80.6067 56.6311 79.2275 59.6755 75.2656C64.8832 68.4887 71.0951 62.5228 78.1112 57.5817C87.5983 50.9002 98.3544 46.2343 109.715 43.8721C121.076 41.5098 132.8 41.5013 144.165 43.8472C155.529 46.193 166.292 50.8433 175.789 57.5111C185.285 64.1788 193.315 72.7224 199.381 82.6144C205.447 92.5064 209.421 103.537 211.057 115.025C212.694 126.512 211.959 138.214 208.896 149.406C206.632 157.683 203.13 165.552 198.525 172.752C195.833 176.961 196.414 182.633 200.313 185.757Z" fill="url(#paint0_linear_3667_298)" fill-opacity="0.8"/>
</g>
<g filter="url(#filter1_b_3667_298)">
<circle cx="127" cy="127" r="93" stroke="url(#paint1_linear_3667_298)" stroke-opacity="0.6" stroke-width="20"/>
</g>
<g filter="url(#filter2_f_3667_298)">
<circle cx="127" cy="127" r="74" fill="white" fill-opacity="0.2"/>
<circle cx="127" cy="127" r="72.5" stroke="white" stroke-width="3"/>
</g>
<path d="M132.8 155.2C133.905 155.2 134.8 154.305 134.8 153.2C134.8 152.095 133.905 151.2 132.8 151.2V155.2ZM109.6 153.2V155.2V153.2ZM98 141.6H96H98ZM98 112.6L96 112.6V112.6H98ZM109.6 101V103V101ZM144.4 101V99V101ZM154 130C154 131.105 154.895 132 156 132C157.105 132 158 131.105 158 130H154ZM154.866 139.762C155.647 138.981 155.647 137.715 154.866 136.934C154.085 136.153 152.819 136.153 152.038 136.934L154.866 139.762ZM139.734 149.238C138.953 150.019 138.953 151.285 139.734 152.066C140.515 152.847 141.781 152.847 142.562 152.066L139.734 149.238ZM152.038 152.066C152.819 152.847 154.085 152.847 154.866 152.066C155.647 151.285 155.647 150.019 154.866 149.238L152.038 152.066ZM142.562 136.934C141.781 136.153 140.515 136.153 139.734 136.934C138.953 137.715 138.953 138.981 139.734 139.762L142.562 136.934ZM156 124.2V126.2C157.105 126.2 158 125.305 158 124.2H156ZM98 124.2H96C96 125.305 96.8954 126.2 98 126.2V124.2ZM132.8 151.2H109.6V155.2H132.8V151.2ZM100 141.6L100 112.6L96 112.6L96 141.6H100ZM109.6 103L144.4 103V99L109.6 99L109.6 103ZM154 112.6V130H158V112.6H154ZM100 112.6C100 107.298 104.298 103 109.6 103L109.6 99C102.089 99 96 105.089 96 112.6L100 112.6ZM109.6 151.2C104.298 151.2 100 146.902 100 141.6H96C96 149.111 102.089 155.2 109.6 155.2V151.2ZM144.4 103C149.702 103 154 107.298 154 112.6L158 112.6C158 105.089 151.911 99 144.4 99V103ZM110.5 141.6C110.5 142.097 110.097 142.5 109.6 142.5V146.5C112.306 146.5 114.5 144.306 114.5 141.6H110.5ZM109.6 142.5C109.103 142.5 108.7 142.097 108.7 141.6H104.7C104.7 144.306 106.894 146.5 109.6 146.5V142.5ZM108.7 141.6C108.7 141.103 109.103 140.7 109.6 140.7V136.7C106.894 136.7 104.7 138.894 104.7 141.6H108.7ZM109.6 140.7C110.097 140.7 110.5 141.103 110.5 141.6H114.5C114.5 138.894 112.306 136.7 109.6 136.7V140.7ZM152.038 136.934L139.734 149.238L142.562 152.066L154.866 139.762L152.038 136.934ZM154.866 149.238L142.562 136.934L139.734 139.762L152.038 152.066L154.866 149.238ZM156 110.6L98 110.6L98 114.6L156 114.6L156 110.6ZM154 112.6V124.2H158V112.6H154ZM156 122.2H98V126.2H156V122.2ZM100 124.2L100 112.6L96 112.6L96 124.2H100Z" fill="#614AD3"/>
<defs>
<filter id="filter0_b_3667_298" x="38.5817" y="20" width="195.418" height="171.733" filterUnits="userSpaceOnUse" color-interpolation-filters="sRGB">
<feFlood flood-opacity="0" result="BackgroundImageFix"/>
<feGaussianBlur in="BackgroundImage" stdDeviation="2"/>
<feComposite in2="SourceAlpha" operator="in" result="effect1_backgroundBlur_3667_298"/>
<feBlend mode="normal" in="SourceGraphic" in2="effect1_backgroundBlur_3667_298" result="shape"/>
</filter>
<filter id="filter1_b_3667_298" x="20" y="20" width="214" height="214" filterUnits="userSpaceOnUse" color-interpolation-filters="sRGB">
<feFlood flood-opacity="0" result="BackgroundImageFix"/>
<feGaussianBlur in="BackgroundImage" stdDeviation="2"/>
<feComposite in2="SourceAlpha" operator="in" result="effect1_backgroundBlur_3667_298"/>
<feBlend mode="normal" in="SourceGraphic" in2="effect1_backgroundBlur_3667_298" result="shape"/>
</filter>
<filter id="filter2_f_3667_298" x="45" y="45" width="164" height="164" filterUnits="userSpaceOnUse" color-interpolation-filters="sRGB">
<feFlood flood-opacity="0" result="BackgroundImageFix"/>
<feBlend mode="normal" in="SourceGraphic" in2="BackgroundImageFix" result="shape"/>
<feGaussianBlur stdDeviation="4" result="effect1_foregroundBlur_3667_298"/>
</filter>
<linearGradient id="paint0_linear_3667_298" x1="100.342" y1="226.491" x2="153.658" y2="27.5098" gradientUnits="userSpaceOnUse">
<stop stop-color="#614AD3"/>
<stop offset="0.822917" stop-color="#E42C64"/>
</linearGradient>
<linearGradient id="paint1_linear_3667_298" x1="-19.3973" y1="9.15887" x2="43.7271" y2="251.529" gradientUnits="userSpaceOnUse">
<stop stop-color="white"/>
<stop offset="1" stop-color="white" stop-opacity="0"/>
</linearGradient>
</defs>
</svg>
