<svg width="47" height="48" viewBox="0 0 47 48" fill="none" xmlns="http://www.w3.org/2000/svg">
<path fill-rule="evenodd" clip-rule="evenodd" d="M47.0001 24.1551V24.0838C47.0001 23.5315 47.0001 22.9732 46.9412 22.4209C46.8779 21.4961 46.7599 20.5758 46.5879 19.6652C46.3749 18.5375 46.0776 17.4277 45.6986 16.3452C44.385 13.0895 42.4354 10.1335 39.9659 7.65319C37.4964 5.17285 34.5574 3.21881 31.3238 1.90735C30.2758 1.54321 29.2032 1.25542 28.1143 1.04619C27.2213 0.872664 26.3186 0.753667 25.4113 0.689842C24.8519 0.624512 24.3278 0.624512 23.7389 0.624512H23.6682C19.0686 0.635085 14.5752 2.01963 10.7551 4.60339C6.93509 7.18715 3.9596 10.8543 2.20425 15.142C0.448904 19.4297 -0.00762758 24.1457 0.892282 28.6949C1.79219 33.244 4.0082 37.4223 7.26062 40.7024C10.513 43.9826 14.6561 46.2174 19.1668 47.125C23.6775 48.0326 28.3537 47.5722 32.6052 45.8019C36.8567 44.0316 40.4929 41.0307 43.0548 37.1782C45.6167 33.3256 46.9896 28.7939 47.0001 24.1551ZM23.3045 22.8434C21.8928 22.8434 20.5128 22.4213 19.339 21.6303C18.1652 20.8393 17.2504 19.715 16.7101 18.3997C16.1699 17.0843 16.0285 15.6369 16.304 14.2405C16.5794 12.8441 17.2592 11.5615 18.2574 10.5547C19.2556 9.54799 20.5274 8.86239 21.912 8.58463C23.2966 8.30688 24.7318 8.44943 26.036 8.99427C27.3403 9.53912 28.455 10.4618 29.2393 11.6456C30.0236 12.8294 30.4423 14.2211 30.4423 15.6449C30.4402 17.5534 29.6876 19.3832 28.3494 20.7328C27.0113 22.0823 25.197 22.8414 23.3045 22.8434ZM23.3045 11.937C22.5774 11.937 21.8666 12.1545 21.262 12.5619C20.6573 12.9693 20.1861 13.5484 19.9078 14.2259C19.6296 14.9035 19.5568 15.649 19.6986 16.3683C19.8405 17.0875 20.1906 17.7482 20.7048 18.2668C21.219 18.7853 21.8741 19.1384 22.5873 19.2815C23.3005 19.4246 24.0397 19.3512 24.7115 19.0705C25.3833 18.7899 25.9575 18.3146 26.3615 17.7049C26.7655 17.0951 26.9811 16.3782 26.9811 15.6449C26.979 14.6621 26.591 13.7202 25.902 13.0253C25.213 12.3304 24.279 11.939 23.3045 11.937ZM33.0472 24.6716C32.9143 24.4399 32.7374 24.237 32.5265 24.0745C32.3156 23.912 32.075 23.793 31.8184 23.7246C31.5618 23.6561 31.2944 23.6394 31.0314 23.6755C30.7684 23.7115 30.5151 23.7996 30.2859 23.9347C28.2188 25.2754 25.821 26.0062 23.3636 26.0446C20.9147 25.966 18.5286 25.2441 16.4412 23.9502C15.9763 23.725 15.4436 23.6873 14.9521 23.845C14.4606 24.0026 14.0474 24.3437 13.7969 24.7983C13.5464 25.253 13.4776 25.7871 13.6045 26.2912C13.7315 26.7954 14.0446 27.2316 14.4798 27.5107C15.6257 28.1635 16.8248 28.7162 18.0641 29.1629C18.6177 29.3557 19.1596 29.581 19.687 29.8378L20.3485 30.1713L15.5259 36.0511C15.1999 36.4193 15.0197 36.8956 15.0197 37.3892C15.0197 37.8828 15.1999 38.3591 15.5259 38.7273C15.713 38.9386 15.9438 39.106 16.202 39.2177C16.4602 39.3294 16.7395 39.3827 17.0203 39.3739C17.3012 39.365 17.5766 39.2942 17.8274 39.1664C18.0781 39.0386 18.2981 38.8569 18.4717 38.6342L23.3097 32.7389L28.1554 38.6342C28.4751 39.0213 28.9317 39.2677 29.4284 39.3213C29.9251 39.3748 30.423 39.2314 30.8167 38.9212C31.2192 38.5689 31.4676 38.0707 31.508 37.5347C31.5483 36.9987 31.3773 36.4684 31.032 36.0589L26.171 30.1015L26.3786 30.0007C26.8761 29.7741 27.3904 29.5873 27.917 29.4422C29.4706 28.9606 30.9608 28.2912 32.355 27.4486C32.8008 27.1728 33.1233 26.7335 33.2549 26.223C33.3259 25.9637 33.3441 25.6925 33.3084 25.4259C33.2727 25.1593 33.1838 24.9027 33.0472 24.6716Z" fill="#7DB0FA"/>
</svg>
