<svg width="77" height="77" viewBox="0 0 77 77" fill="none" xmlns="http://www.w3.org/2000/svg">
<path fill-rule="evenodd" clip-rule="evenodd" d="M38.5 4.91489C19.9515 4.91489 4.91489 19.9515 4.91489 38.5C4.91489 57.0485 19.9515 72.0851 38.5 72.0851C57.0485 72.0851 72.0851 57.0485 72.0851 38.5C72.0851 19.9515 57.0485 4.91489 38.5 4.91489ZM0 38.5C0 17.237 17.237 0 38.5 0C59.7628 0 77 17.237 77 38.5C77 59.7628 59.7628 77 38.5 77C17.237 77 0 59.7628 0 38.5Z" fill="#614AD3"/>
<path fill-rule="evenodd" clip-rule="evenodd" d="M30.2863 28.4571C30.821 28.9238 31.1278 29.5988 31.1278 30.3085V58.1595C31.1278 59.5167 30.0275 60.617 28.6703 60.617H18.8405C17.4833 60.617 16.3831 59.5167 16.3831 58.1595V31.6489C16.3831 30.42 17.2909 29.38 18.5085 29.214L28.3383 27.8736C29.0415 27.7777 29.7517 27.9905 30.2863 28.4571ZM21.298 33.7941V55.7021H26.2129V33.1237L21.298 33.7941Z" fill="#614AD3"/>
<path fill-rule="evenodd" clip-rule="evenodd" d="M41.4201 17.4043C44.1502 13.7643 49.8822 14.9252 50.9806 19.3406C51.2604 20.4643 51.4016 21.6178 51.4016 22.7758V25.2239C51.4016 26.6485 51.206 28.0664 50.8203 29.4378L50.3449 31.1277H54.6405C57.9682 31.1277 60.597 33.9511 60.3601 37.2703L59.4073 50.61C59.0705 55.3254 55.1467 58.9788 50.4196 58.9788H28.6702C27.313 58.9788 26.2128 57.8785 26.2128 56.5213V33.5852C26.2128 32.5275 26.8896 31.5883 27.8931 31.2538L30.866 30.2628C31.6563 29.9994 32.3475 29.5012 32.8475 28.8347L41.4201 17.4043ZM46.2111 20.5272C46.1125 20.1305 45.5974 20.0261 45.352 20.3532L36.7795 31.7836C35.6795 33.25 34.1588 34.346 32.4203 34.9256L31.1277 35.3565V54.0639H50.4196C52.5684 54.0639 54.3518 52.4033 54.5049 50.2601L55.4577 36.9201C55.4914 36.4459 55.1159 36.0426 54.6405 36.0426H47.1011C46.3317 36.0426 45.6069 35.6822 45.1423 35.0691C44.6777 34.4557 44.527 33.6605 44.7354 32.9197L46.0889 28.1071C46.353 27.1688 46.4867 26.1987 46.4867 25.2239V22.7758C46.4867 22.0178 46.3943 21.2627 46.2111 20.5272Z" fill="#614AD3"/>
</svg>
