<svg width="30" height="24" viewBox="0 0 30 24" fill="none" xmlns="http://www.w3.org/2000/svg">
<path d="M26.25 0.75H3.75C1.67907 0.75 0 2.42907 0 4.5V19.5C0 21.5709 1.67907 23.25 3.75 23.25H26.25C28.3209 23.25 30 21.5709 30 19.5V4.5C30 2.42907 28.3209 0.75 26.25 0.75ZM27.1875 2.625L15 12L2.8125 2.625H27.1875ZM1.875 19.5V4.5L10.3125 11.0625L1.96407 20.0419C1.91157 19.8694 1.875 19.6903 1.875 19.5ZM3.33279 21.3253L11.7937 12.3103L15 14.7328L18.0684 12.2944L26.6672 21.3244C26.5322 21.3553 3.46779 21.3553 3.33279 21.3253ZM28.036 20.0428L19.6875 11.0625L28.125 4.5V19.5C28.125 19.6903 28.0884 19.8694 28.036 20.0428Z" fill="#7DB0FA"/>
</svg>
