<svg width="79" height="80" viewBox="0 0 79 80" fill="none" xmlns="http://www.w3.org/2000/svg">
<path d="M65.0106 46.565C65.0106 48.6502 63.3217 50.3389 61.2368 50.3389C59.1516 50.3389 57.4629 48.65 57.4629 46.565C57.4629 44.4801 59.1518 42.7913 61.2367 42.7912L65.0106 46.565ZM65.0106 46.565C65.0106 44.4815 63.3221 42.791 61.2368 42.7912L65.0106 46.565ZM77.9847 36.9909V36.4909H77.4847H74.2778V19.9392C74.2778 15.5751 70.7282 12.0255 66.3641 12.0255H61.6376L56.6431 3.04545C55.7717 1.47449 54.1139 0.5 52.3165 0.5C51.4779 0.5 50.6472 0.716086 49.9135 1.1232L49.9131 1.12342L30.3088 12.0252H8.41372C4.04958 12.0252 0.5 15.5748 0.5 19.939V70.8464C0.5 75.2105 4.04958 78.7601 8.41372 78.7601H66.3641C70.7282 78.7601 74.2778 75.2105 74.2778 70.8464V56.3958H77.4847H77.9847V55.8958V36.9909ZM51.8417 4.58922L51.8433 4.58835C52.2944 4.33537 52.9255 4.51725 53.1765 4.97002L53.1768 4.97065L60.9483 18.9439H26.0263L51.8417 4.58922ZM66.3641 15.9908C68.1915 15.9908 69.7216 17.2461 70.1634 18.9452H65.4853L63.8435 15.9908H66.3641ZM70.3122 70.8464C70.3122 73.0227 68.5402 74.7948 66.3639 74.7948H8.41372C6.23739 74.7948 4.46535 73.0227 4.46535 70.8464V19.9392C4.46535 17.7629 6.23739 15.9908 8.41372 15.9908H23.1786L17.8655 18.9455H9.34049C8.24409 18.9455 7.3577 19.8339 7.3577 20.9283C7.3577 22.0227 8.24409 22.9111 9.34049 22.9111H12.6618H66.8401H70.3122V36.4923H59.969C54.6573 36.4923 50.3353 40.8146 50.3353 46.126V46.7637C50.3353 52.0754 54.6575 56.3974 59.969 56.3974H70.3122V70.8464ZM74.0191 52.4304H73.7778H59.969C56.8437 52.4304 54.3007 49.8876 54.3007 46.7621V46.1244C54.3007 42.9991 56.8435 40.4561 59.969 40.4561H73.7778H74.0191V52.4304Z" fill="#614AD3" stroke="#614AD3"/>
</svg>
