<svg width="206" height="206" viewBox="0 0 206 206" fill="none" xmlns="http://www.w3.org/2000/svg">
<g filter="url(#filter0_b_3667_297)">
<mask id="path-1-inside-1_3667_297" fill="white">
<path d="M16.9777 65.2198C12.403 63.2106 7.02481 65.2809 5.42468 70.0143C1.89678 80.4502 0.0595312 91.4036 0.00142285 102.459C-0.0725673 116.535 2.73958 130.477 8.26424 143.424C13.7889 156.372 21.9088 168.049 32.1226 177.736C42.3365 187.422 54.4274 194.912 67.649 199.744C80.8706 204.575 94.9422 206.645 108.995 205.825C123.048 205.006 136.783 201.315 149.354 194.98C161.925 188.645 173.063 179.8 182.082 168.993C189.165 160.505 194.823 150.947 198.854 140.695C200.683 136.045 197.907 130.995 193.114 129.582C188.322 128.168 183.336 130.932 181.42 135.547C178.144 143.441 173.688 150.811 168.19 157.4C160.755 166.309 151.573 173.6 141.211 178.822C130.849 184.044 119.526 187.087 107.942 187.762C96.3577 188.438 84.758 186.731 73.8591 182.749C62.9601 178.766 52.9931 172.592 44.5736 164.607C36.154 156.622 29.4605 146.996 24.9063 136.323C20.3522 125.65 18.034 114.157 18.095 102.554C18.1401 93.9725 19.4857 85.4655 22.0707 77.3191C23.582 72.5566 21.5524 67.229 16.9777 65.2198Z"/>
</mask>
<path d="M16.9777 65.2198C12.403 63.2106 7.02481 65.2809 5.42468 70.0143C1.89678 80.4502 0.0595312 91.4036 0.00142285 102.459C-0.0725673 116.535 2.73958 130.477 8.26424 143.424C13.7889 156.372 21.9088 168.049 32.1226 177.736C42.3365 187.422 54.4274 194.912 67.649 199.744C80.8706 204.575 94.9422 206.645 108.995 205.825C123.048 205.006 136.783 201.315 149.354 194.98C161.925 188.645 173.063 179.8 182.082 168.993C189.165 160.505 194.823 150.947 198.854 140.695C200.683 136.045 197.907 130.995 193.114 129.582C188.322 128.168 183.336 130.932 181.42 135.547C178.144 143.441 173.688 150.811 168.19 157.4C160.755 166.309 151.573 173.6 141.211 178.822C130.849 184.044 119.526 187.087 107.942 187.762C96.3577 188.438 84.758 186.731 73.8591 182.749C62.9601 178.766 52.9931 172.592 44.5736 164.607C36.154 156.622 29.4605 146.996 24.9063 136.323C20.3522 125.65 18.034 114.157 18.095 102.554C18.1401 93.9725 19.4857 85.4655 22.0707 77.3191C23.582 72.5566 21.5524 67.229 16.9777 65.2198Z" stroke="url(#paint0_linear_3667_297)" stroke-opacity="0.6" stroke-width="24" mask="url(#path-1-inside-1_3667_297)"/>
</g>
<g filter="url(#filter1_b_3667_297)">
<circle cx="103" cy="103" r="93" stroke="url(#paint1_linear_3667_297)" stroke-opacity="0.6" stroke-width="20"/>
</g>
<g filter="url(#filter2_f_3667_297)">
<circle cx="103" cy="103" r="74" fill="white" fill-opacity="0.2"/>
<circle cx="103" cy="103" r="72.5" stroke="white" stroke-width="3"/>
</g>
<path d="M105.9 131C107.005 131 107.9 130.105 107.9 129C107.9 127.895 107.005 127 105.9 127V131ZM85.6 129V131V129ZM74 117.444H76H74ZM74 88.5556L72 88.5556V88.5556H74ZM85.6 77V79V77ZM120.4 77V75V77ZM130 108.778C130 109.882 130.895 110.778 132 110.778C133.105 110.778 134 109.882 134 108.778H130ZM132 100.111V102.111C133.105 102.111 134 101.216 134 100.111H132ZM74 100.111H72C72 101.216 72.8954 102.111 74 102.111V100.111ZM115.846 121.658C114.983 120.97 113.724 121.112 113.036 121.976C112.348 122.84 112.49 124.098 113.354 124.786L115.846 121.658ZM119.683 127.273L118.437 128.837H118.437L119.683 127.273ZM123.677 126.92L122.175 125.6L123.677 126.92ZM133.503 118.764C134.232 117.934 134.15 116.671 133.32 115.942C132.49 115.213 131.226 115.295 130.497 116.125L133.503 118.764ZM105.9 127H85.6V131H105.9V127ZM76 117.444L76 88.5556L72 88.5556L72 117.444H76ZM85.6 79L120.4 79V75L85.6 75L85.6 79ZM130 88.5556V108.778H134V88.5556H130ZM76 88.5556C76 83.2854 80.2908 79 85.6 79L85.6 75C78.0962 75 72 81.0618 72 88.5556L76 88.5556ZM85.6 127C80.2908 127 76 122.715 76 117.444H72C72 124.938 78.0962 131 85.6 131V127ZM120.4 79C125.709 79 130 83.2854 130 88.5556L134 88.5556C134 81.0618 127.904 75 120.4 75V79ZM86.5 117.444C86.5 117.928 86.1043 118.333 85.6 118.333V122.333C88.299 122.333 90.5 120.152 90.5 117.444H86.5ZM85.6 118.333C85.0957 118.333 84.7 117.928 84.7 117.444H80.7C80.7 120.152 82.9011 122.333 85.6 122.333V118.333ZM84.7 117.444C84.7 116.961 85.0957 116.556 85.6 116.556V112.556C82.9011 112.556 80.7 114.737 80.7 117.444H84.7ZM85.6 116.556C86.1043 116.556 86.5 116.961 86.5 117.444H90.5C90.5 114.737 88.299 112.556 85.6 112.556V116.556ZM132 86.5556L74 86.5556L74 90.5556L132 90.5556L132 86.5556ZM130 88.5556V100.111H134V88.5556H130ZM132 98.1111H74V102.111H132V98.1111ZM76 100.111L76 88.5556L72 88.5556L72 100.111H76ZM113.354 124.786L118.437 128.837L120.93 125.709L115.846 121.658L113.354 124.786ZM125.18 128.24L133.503 118.764L130.497 116.125L122.175 125.6L125.18 128.24ZM118.437 128.837C120.482 130.468 123.453 130.206 125.18 128.24L122.175 125.6C121.858 125.96 121.308 126.01 120.93 125.709L118.437 128.837Z" fill="#614AD3"/>
<defs>
<filter id="filter0_b_3667_297" x="-4" y="60.4551" width="207.421" height="149.545" filterUnits="userSpaceOnUse" color-interpolation-filters="sRGB">
<feFlood flood-opacity="0" result="BackgroundImageFix"/>
<feGaussianBlur in="BackgroundImage" stdDeviation="2"/>
<feComposite in2="SourceAlpha" operator="in" result="effect1_backgroundBlur_3667_297"/>
<feBlend mode="normal" in="SourceGraphic" in2="effect1_backgroundBlur_3667_297" result="shape"/>
</filter>
<filter id="filter1_b_3667_297" x="-4" y="-4" width="214" height="214" filterUnits="userSpaceOnUse" color-interpolation-filters="sRGB">
<feFlood flood-opacity="0" result="BackgroundImageFix"/>
<feGaussianBlur in="BackgroundImage" stdDeviation="2"/>
<feComposite in2="SourceAlpha" operator="in" result="effect1_backgroundBlur_3667_297"/>
<feBlend mode="normal" in="SourceGraphic" in2="effect1_backgroundBlur_3667_297" result="shape"/>
</filter>
<filter id="filter2_f_3667_297" x="21" y="21" width="164" height="164" filterUnits="userSpaceOnUse" color-interpolation-filters="sRGB">
<feFlood flood-opacity="0" result="BackgroundImageFix"/>
<feBlend mode="normal" in="SourceGraphic" in2="BackgroundImageFix" result="shape"/>
<feGaussianBlur stdDeviation="4" result="effect1_foregroundBlur_3667_297"/>
</filter>
<linearGradient id="paint0_linear_3667_297" x1="-43.3973" y1="-14.8411" x2="19.7271" y2="227.529" gradientUnits="userSpaceOnUse">
<stop stop-color="#A259FF"/>
<stop offset="1" stop-color="#09F9BF"/>
</linearGradient>
<linearGradient id="paint1_linear_3667_297" x1="-43.3973" y1="-14.8411" x2="19.7271" y2="227.529" gradientUnits="userSpaceOnUse">
<stop stop-color="white"/>
<stop offset="1" stop-color="white" stop-opacity="0"/>
</linearGradient>
</defs>
</svg>
