<svg width="40" height="41" viewBox="0 0 40 41" fill="none" xmlns="http://www.w3.org/2000/svg">
<path fill-rule="evenodd" clip-rule="evenodd" d="M2.81177 2.88207C0 5.76414 0 10.4027 0 19.68V21.32C0 30.5973 0 35.2358 2.81177 38.118C5.62355 41 10.149 41 19.2 41H20.8C29.851 41 34.3764 41 37.1882 38.118C40 35.2358 40 30.5973 40 21.32V19.68C40 10.4027 40 5.76414 37.1882 2.88207C34.3764 0 29.851 0 20.8 0H19.2C10.149 0 5.62355 0 2.81177 2.88207ZM6.7501 12.4709C6.96677 23.1309 12.1667 29.5372 21.2834 29.5372H21.8002V23.4384C25.1502 23.7801 27.6833 26.2913 28.7 29.5372H33.4334C32.1334 24.6855 28.7166 22.0034 26.5833 20.9784C28.7166 19.7143 31.7166 16.6393 32.4332 12.4709H28.1332C27.1998 15.8534 24.4335 18.9284 21.8002 19.2188V12.4709H17.5V24.2926C14.8333 23.6093 11.4668 20.2951 11.3167 12.4709H6.7501Z" fill="#7DB0FA"/>
</svg>
