<svg width="300" height="81" viewBox="0 0 300 81" fill="none" xmlns="http://www.w3.org/2000/svg">
<path d="M76.6168 37.8657H93.0726V52.729L102.097 37.8657H120.322L106.343 57.3296L120.676 78.9167H101.743L93.0726 63.3457V78.9167H76.6168V37.8657Z" fill="#006FBA"/>
<path d="M72.5468 77.6783C69.8926 79.0939 66.3538 80.1556 61.5763 80.1556C48.1285 80.1556 38.5735 71.4853 38.5735 58.3914C38.5735 43.5281 50.7827 36.6273 61.2224 36.6273C64.5843 36.6273 69.1849 37.512 72.5468 39.8123V54.1448C70.0696 50.9598 66.3538 49.7212 63.5227 49.7212C57.3296 49.7212 54.4985 53.7909 54.4985 58.7453C54.4985 64.0536 58.3913 67.0617 63.5227 67.0617C67.2385 67.0617 70.4235 65.4692 72.7237 63.3459C72.5468 63.3459 72.5468 77.6783 72.5468 77.6783Z" fill="#006FBA"/>
<path d="M16.4558 53.2601V47.4209H18.0483C20.8794 47.4209 21.7641 48.8365 21.7641 50.2521C21.7641 51.6676 21.0563 53.0832 18.0483 53.0832L16.4558 53.2601ZM0 37.689V78.917H24.4183C35.7427 78.917 38.2199 71.6623 38.2199 67.4156C38.2199 61.7534 34.3271 57.8606 29.0188 56.9759V56.799C32.3808 55.7373 36.2735 52.9062 36.2735 48.1287C36.2735 44.9437 35.0349 37.689 23.1797 37.689C23.1797 37.689 0 37.689 0 37.689ZM16.4558 68.8312V62.6381H18.4022C19.9947 62.6381 22.4719 62.992 22.4719 65.6462C22.4719 68.4773 19.8177 68.8312 18.4022 68.8312H16.4558Z" fill="#006FBA"/>
<path d="M216.933 43.1743L212.156 43.3512L211.802 42.1126L207.201 41.9357V41.051H202.424L203.131 42.6435L205.255 42.9973L205.078 42.2896L207.024 43.7051L210.209 44.4129H212.332L217.818 43.7051L216.933 43.1743Z" fill="#52B9E9"/>
<path d="M204.901 39.1046L202.6 38.7507C202.6 38.7507 202.6 38.043 201.716 37.5121C200.831 37.1582 201.008 37.5121 201.008 37.5121L200.123 36.9813L198.531 36.8044L198.354 35.7427L196.407 35.5658V35.0349L194.815 34.858L194.107 34.3271L194.284 33.6194L193.93 33.0885L191.984 32.2038L190.391 31.673L189.33 30.4344L188.091 29.3727L186.498 27.7802L182.429 26.3647L178.713 23.7105L177.12 23.0027L175.528 22.295L172.166 20.5255L167.035 17.6944L155.887 12.3861L152.702 10.9705C150.933 10.2628 150.579 9.73192 150.579 9.55498C148.986 9.20109 148.455 8.8472 147.571 8.13943C146.686 8.13943 144.74 7.07776 144.209 6.54693C144.209 6.54693 140.847 5.66221 140.67 5.30832C140.67 5.13138 132.177 2.12333 131.115 1.94638C130.407 1.94638 128.284 1.5925 127.93 1.41555C127.576 1.41555 126.337 1.06166 125.807 0.88472C124.037 0.707776 122.268 0.353888 120.498 0.353888C119.26 0.353888 118.375 0.353888 117.313 0C116.959 0.176944 114.305 -0.176944 113.244 0.530832C112.182 0.530832 109.705 1.06166 108.997 1.41555C107.581 1.41555 105.104 3.00805 104.219 3.36194C103.866 3.53888 103.335 3.71582 102.981 3.89277C105.635 4.77749 108.643 5.83915 108.643 6.0161C108.82 6.19304 112.182 7.07776 112.182 7.25471C113.067 7.96248 115.013 9.02415 115.898 9.02415C116.782 9.90887 117.313 10.0858 118.906 10.4397C118.906 10.6166 119.26 11.1475 121.029 11.8553L124.214 13.2708L135.362 18.5791L140.493 21.4102L143.855 23.1797L145.447 23.8874L147.04 24.5952L148.279 25.4799L150.756 26.3647L156.241 28.1341L162.965 30.6113L165.442 31.496L167.919 32.2038L169.158 32.0269L170.397 32.3808L171.812 33.6194L173.228 33.0885L174.289 33.2655L174.997 34.3271L175.528 34.858L176.766 35.2119L178.005 35.3888L179.421 35.0349L181.19 35.2119L181.721 36.2735L184.198 36.6274L185.968 36.8044L187.737 36.9813L189.153 37.5121L190.391 38.7507L192.161 39.1046L196.761 39.8124L200.831 39.2816L203.485 39.4585L204.901 39.1046Z" fill="#52B9E9"/>
<path d="M167.92 45.6516H172.874V46.5363L177.298 46.8902L177.829 47.9519L182.429 47.7749L183.491 48.4827L178.006 49.1905L175.882 49.0135L172.697 48.3058L170.751 47.0672L170.928 47.598L168.805 47.4211L167.92 45.6516Z" fill="#006FBA"/>
<path d="M168.451 43.7053C168.451 43.7053 168.451 42.9975 167.566 42.4667C166.681 42.1128 166.858 42.4667 166.858 42.4667L165.974 41.9358L164.558 41.5819V40.5203L162.612 40.3433V39.8125L161.019 39.6356L160.311 39.1047L160.488 38.397L160.134 37.8661L158.188 36.9814L156.596 36.4506L155.534 35.212L154.295 34.1503L152.703 32.5578L148.633 31.1423L144.917 28.4881L143.325 27.7803L141.732 27.0725L138.37 25.3031L133.239 22.472L122.091 17.1637L118.906 15.7481C117.137 15.0403 116.783 14.5095 116.783 14.3326C115.191 13.9787 114.66 13.6248 113.775 12.917C112.89 12.917 110.944 11.8554 110.413 11.3245C110.413 11.3245 107.051 10.4398 106.874 10.0859C106.874 9.90897 98.381 6.90092 97.3193 6.72397C96.6115 6.72397 94.4882 6.37008 94.1343 6.19314C93.7804 6.19314 92.5418 5.83925 92.011 5.66231C90.2415 5.48536 88.4721 5.13148 86.7027 5.13148C85.4641 5.13148 84.5793 5.13148 83.5177 4.77759C83.1638 4.95453 80.5096 4.60064 79.448 5.30842C78.3863 5.30842 75.9091 5.83925 75.2013 6.19314C73.7857 6.19314 71.3085 7.78564 70.4238 8.13952C69.716 8.49341 68.8313 8.8473 68.1235 9.20119C67.7696 9.37813 63.1691 11.6784 62.8152 12.0323C62.8152 12.2092 58.2147 14.8634 57.8608 15.2173C57.6838 15.3942 56.4452 15.9251 56.0913 16.279C55.7375 16.6328 54.4988 17.6945 54.145 17.8714C53.968 18.2253 52.7294 18.7562 52.5525 19.1101C52.1986 19.4639 50.783 20.1717 50.6061 20.3487C50.6061 20.3487 49.7214 21.0564 49.1905 21.5873C49.0136 21.9412 48.6597 22.295 48.4827 22.6489C48.1289 22.8259 46.8902 23.5337 46.5364 23.7106C46.5364 24.4184 46.5364 25.657 45.4747 25.3031C45.4747 25.3031 44.0591 26.1878 44.0591 26.0109C44.2361 26.0109 43.3514 27.2495 42.6436 28.1342C42.2897 28.665 40.1664 29.3728 39.8125 29.9036C38.9278 30.9653 38.043 32.027 37.1583 33.0886C37.1583 33.0886 37.1583 33.0886 37.3353 33.0886C37.3353 33.2656 38.043 33.2656 38.22 33.4425C38.3969 33.7964 37.8661 34.1503 37.8661 34.6811C37.8661 34.6811 37.8661 34.6811 38.043 34.6811C38.5739 34.6811 39.2817 33.9734 39.8125 33.7964C40.1664 33.6195 40.6972 33.4425 41.0511 33.2656C41.7589 32.9117 42.4666 32.3809 43.3514 32.027C48.8366 29.0189 54.4988 26.1878 59.9841 23.1798C62.6383 21.7642 64.7616 20.5256 67.7696 18.9331C68.4774 18.5792 71.1316 16.8098 73.078 16.6328C75.5552 16.4559 78.7402 17.1637 79.448 17.5176C80.1557 17.8714 82.1021 18.7562 83.1638 18.9331C83.5177 19.1101 84.0485 19.4639 84.2254 19.4639C84.4024 19.6409 86.1718 19.8178 87.0565 20.1717C87.4104 20.3487 87.7643 20.5256 88.1182 20.7026C89.7107 21.2334 93.6035 22.1181 95.019 22.472C96.2576 22.8259 96.9654 23.5337 97.4962 23.7106C98.381 24.2414 98.5579 24.0645 99.4426 24.4184C101.035 24.5953 101.92 25.1262 101.92 25.1262C102.451 25.3031 102.628 25.48 103.158 25.657C103.512 25.657 104.397 26.3648 104.574 26.3648C104.928 26.3648 107.405 27.2495 107.759 27.2495C108.113 27.2495 109.882 27.9573 110.236 28.1342C110.767 28.3111 111.298 28.4881 111.829 28.665L116.96 30.6114L122.445 32.3809L129.169 34.8581L131.646 35.7428L134.124 36.4506L135.362 36.2736L136.601 36.6275L138.016 37.8661L139.432 37.3353L140.494 37.5122L141.201 38.5739L141.732 39.1047L142.971 39.4586L144.209 39.6356L145.625 39.2817L147.394 39.4586L147.925 40.5203L150.403 40.8742L152.172 41.0511L153.941 41.2281L155.357 41.7589L156.596 42.9975L158.365 43.3514L162.966 44.0592L167.035 43.5283L169.689 43.7053L170.574 42.9975L168.451 43.7053Z" fill="#006FBA"/>
<path d="M134.477 77.3244C133.77 77.6783 132.708 78.0322 131.292 78.0322C128.992 78.0322 127.577 77.3244 126.515 76.2628C124.922 74.8472 124.392 73.2547 124.392 71.3083C124.392 69.0081 125.453 67.2386 126.515 66.3539C127.754 65.1153 129.523 64.5845 131.292 64.5845C132.177 64.5845 133.416 64.7614 134.477 65.2922V68.3003C133.239 66.8847 131.823 66.8847 131.292 66.8847C128.638 66.8847 126.869 69.0081 126.869 71.3083C126.869 74.1395 129.169 75.7319 131.292 75.7319C132.531 75.7319 133.593 75.2011 134.3 74.3164C134.477 74.4933 134.477 77.3244 134.477 77.3244Z" fill="#006FBA"/>
<path d="M141.909 77.8553H139.255V67.2387H136.247V65.1154H144.74V67.2387H141.732L141.909 77.8553Z" fill="#006FBA"/>
<path d="M150.049 67.062H150.934C151.465 67.062 152.173 67.062 152.703 67.4159C153.057 67.7698 153.411 68.1237 153.411 68.8314C153.411 69.3623 153.234 69.8931 152.703 70.247C152.173 70.9548 151.642 70.9548 151.111 70.9548H150.049V67.062ZM147.395 64.9387V77.8556H150.049V73.0781H151.642C153.234 73.0781 154.296 72.7242 155.004 72.0164C156.065 70.9548 156.065 69.7162 156.065 69.1853C156.065 68.3006 155.711 67.062 154.65 66.0003C153.765 65.1156 152.703 64.9387 151.111 64.9387H147.395Z" fill="#006FBA"/>
<path d="M161.55 73.0778L163.497 68.4772L165.266 73.0778H161.55ZM167.212 77.8553H169.867L164.381 64.7614H162.435L156.773 77.8553H159.604L160.842 75.2011H166.151L167.212 77.8553Z" fill="#006FBA"/>
<path d="M175.706 71.1314L171.813 65.1154H174.821L177.121 69.0081L179.599 65.1154H182.607L178.537 71.1314L182.96 77.8553H179.952L177.121 73.0778L174.113 77.8553H171.105L175.706 71.1314Z" fill="#006FBA"/>
<path d="M192.514 75.9089C189.86 75.9089 188.091 74.1394 188.091 71.4853C188.091 68.8311 189.86 67.0617 192.514 67.0617C195.169 67.0617 196.938 68.8311 196.938 71.4853C196.938 73.9625 194.992 75.9089 192.514 75.9089ZM192.514 64.7614C188.445 64.7614 185.437 67.5925 185.437 71.4853C185.437 75.3781 188.268 78.2092 192.514 78.2092C196.584 78.2092 199.592 75.3781 199.592 71.4853C199.592 67.5925 196.584 64.7614 192.514 64.7614Z" fill="#006FBA"/>
<path d="M205.432 67.0617H206.139C207.201 67.0617 208.086 67.4156 208.086 68.6542C208.086 70.2467 206.493 70.2467 206.139 70.2467H205.432V67.0617ZM202.954 64.9384V77.8553H207.378C208.44 77.8553 209.678 77.6783 210.74 76.7936C211.625 76.0858 211.802 75.0242 211.802 74.1394C211.802 73.4317 211.625 72.547 210.917 71.6622C210.563 71.3083 210.032 70.9545 209.148 70.7775C209.501 70.6006 210.563 69.8928 210.563 68.3003C210.563 67.2386 210.032 66.177 209.324 65.6461C208.263 64.7614 206.847 64.7614 206.139 64.7614L202.954 64.9384ZM205.432 72.1931H206.316C206.847 72.1931 207.555 72.1931 208.086 72.37C208.971 72.7239 208.971 73.4317 208.971 73.7856C208.971 74.3164 208.794 74.8472 208.086 75.2011C207.555 75.555 206.847 75.555 206.316 75.555H205.255V72.1931H205.432Z" fill="#006FBA"/>
<path d="M221.534 75.9089C218.88 75.9089 217.111 74.1394 217.111 71.4853C217.111 68.8311 218.88 67.0617 221.534 67.0617C224.012 67.0617 225.958 68.8311 225.958 71.4853C225.958 73.9625 224.189 75.9089 221.534 75.9089ZM221.534 64.7614C217.465 64.7614 214.457 67.5925 214.457 71.4853C214.457 75.3781 217.288 78.2092 221.534 78.2092C225.604 78.2092 228.612 75.3781 228.612 71.4853C228.612 67.5925 225.604 64.7614 221.534 64.7614Z" fill="#006FBA"/>
<path d="M234.452 64.9384V73.6086L241.706 64.7614H243.476V77.8553H240.822V69.185L233.567 78.0322H231.797V64.9384C231.974 64.9384 234.452 64.9384 234.452 64.9384ZM236.044 60.8687C236.398 61.9303 237.637 61.9303 237.814 61.9303C237.991 61.9303 239.229 61.9303 239.583 60.8687L241.352 61.5764C240.822 62.815 239.583 63.6998 237.814 63.6998C236.044 63.6998 234.806 62.815 234.275 61.5764L236.044 60.8687Z" fill="#006FBA"/>
<path d="M256.923 67.062H260.816V75.5553H255.507C255.861 75.2014 256.215 74.6706 256.569 73.9628C256.746 73.432 257.1 72.3703 257.1 70.4239V67.062H256.923ZM254.446 64.9387V70.6009C254.446 72.3703 254.269 73.255 253.915 73.9628C253.561 74.8475 252.853 75.7322 251.792 75.7322V80.8636H254.092V78.0325H262.231V80.8636H264.532V75.7322H263.116V65.1156H254.446V64.9387Z" fill="#006FBA"/>
<path d="M273.733 75.9089C271.079 75.9089 269.309 74.1394 269.309 71.4853C269.309 68.8311 271.079 67.0617 273.733 67.0617C276.387 67.0617 278.156 68.8311 278.156 71.4853C278.156 73.9625 276.387 75.9089 273.733 75.9089ZM273.733 64.7614C269.663 64.7614 266.655 67.5925 266.655 71.4853C266.655 75.3781 269.486 78.2092 273.733 78.2092C277.802 78.2092 280.81 75.3781 280.81 71.4853C280.81 67.5925 277.979 64.7614 273.733 64.7614Z" fill="#006FBA"/>
<path d="M283.465 77.8553L285.942 64.7614H287.712L291.25 73.0778L294.966 64.7614H296.736L299.036 77.8553H296.382L295.143 69.8928L291.604 78.0322H290.896L287.358 69.8928L285.942 77.8553H283.465Z" fill="#006FBA"/>
</svg>
