<svg width="228" height="82" viewBox="0 0 228 82" fill="none" xmlns="http://www.w3.org/2000/svg">
<path fill-rule="evenodd" clip-rule="evenodd" d="M15.495 0L11.6188 10.6175H65.3337L69.2098 0H15.495ZM9.67951 15.9239L5.80335 26.539H59.5182L63.3944 15.9239H9.67951ZM3.87616 31.8478L0 42.463H53.7149L57.5886 31.8478H3.87616Z" fill="#009FDF"/>
<mask id="mask0_1_407" style="mask-type:alpha" maskUnits="userSpaceOnUse" x="80" y="16" width="148" height="66">
<path d="M80.5887 81.1675H227.627V16.1284H80.5887V81.1675Z" fill="white"/>
</mask>
<g mask="url(#mask0_1_407)">
<path fill-rule="evenodd" clip-rule="evenodd" d="M114.194 46.509V46.733C116.649 47.634 118.994 49.2096 120.222 50.2214C124.018 53.3725 125.694 57.5354 125.694 62.9366C125.694 71.8286 121.004 78.2415 113.3 80.2676C110.955 80.9421 108.501 81.1686 103.921 81.1686H80.5892V16.128H101.244C105.486 16.128 108.388 16.352 110.955 17.0265C118.437 19.0526 123.349 24.2298 123.349 32.4423C123.349 36.8317 121.786 40.5465 119.219 43.0206C118.102 44.1457 116.539 45.4972 114.194 46.509ZM93.5398 53.3725V70.477H102.472C105.149 70.477 107.607 70.253 109.395 68.5642C111.18 66.8754 111.962 64.7386 111.962 61.9248C111.962 59.7879 111.402 57.7619 110.286 56.2996C108.388 53.9362 106.043 53.3725 102.025 53.3725H93.5398ZM93.4274 42.1196H100.684C102.917 42.1196 104.033 42.1196 105.149 41.7824C108.166 40.8813 110.064 38.1832 110.064 34.4684C110.064 30.0814 108.054 28.1662 105.149 27.2676C103.921 26.9303 102.695 26.8171 100.237 26.8171H93.4274V42.1196ZM145.12 81.1686V27.0411H126.476V16.128H178.28L174.597 27.0411H158.07V81.1686H145.12ZM182.298 81.1686V16.128H224.279L220.595 27.0411H195.139V41.4451H205.522C213.895 41.4451 218.25 43.4711 221.265 46.0585C223.609 48.0845 227.628 52.5847 227.628 61.4767C227.628 70.253 223.497 75.0904 220.036 77.567C216.018 80.3784 211.775 81.1686 203.177 81.1686H182.298ZM195.139 70.253H204.853C208.536 70.253 210.769 69.352 212.332 67.3259C213.114 66.3141 214.23 64.5121 214.23 61.137C214.23 57.7619 213.114 55.3985 210.881 53.7097C209.543 52.6979 207.755 52.1367 204.741 52.1367H195.139V70.253Z" fill="#0A2973"/>
</g>
</svg>
