<svg width="49" height="50" viewBox="0 0 49 50" fill="none" xmlns="http://www.w3.org/2000/svg">
<path d="M47.9907 12.9777C47.4257 10.8361 45.7708 9.14744 43.672 8.57084C39.8376 7.5 24.4999 7.5 24.4999 7.5C24.4999 7.5 9.16223 7.5 5.32782 8.52965C3.26934 9.10625 1.57413 10.8361 1.00906 12.9777C0 16.8904 0 25.004 0 25.004C0 25.004 0 33.1589 1.00906 37.0303C1.57413 39.172 3.22898 40.8606 5.32782 41.4372C9.2026 42.5081 24.4999 42.5081 24.4999 42.5081C24.4999 42.5081 39.8376 42.5081 43.672 41.4784C45.7708 40.9018 47.4257 39.2132 47.9907 37.0715C48.9998 33.1589 48.9998 25.0452 48.9998 25.0452C48.9998 25.0452 49.0402 16.8904 47.9907 12.9777Z" fill="#7DB0FA"/>
<path d="M19.6161 32.4998L32.3706 25.0039L19.6161 17.5081V32.4998Z" fill="#F2F5F8"/>
</svg>
